<svg xmlns="http://www.w3.org/2000/svg" viewBox="0 0 430 339.542">
  <defs>
    <style>
      .cls-1 {
        fill: #f0f2ff;
      }

      .cls-2, .cls-9 {
        fill: none;
      }

      .cls-2, .cls-4, .cls-6, .cls-7, .cls-8, .cls-9 {
        stroke: #4550e5;
        stroke-linejoin: round;
        stroke-width: 4.886px;
      }

      .cls-2, .cls-4, .cls-6 {
        stroke-linecap: round;
      }

      .cls-3, .cls-4, .cls-8 {
        fill: #fff;
      }

      .cls-5, .cls-6, .cls-7 {
        fill: #d6daff;
      }
    </style>
  </defs>
  <g id="customer-service-woman" transform="translate(-29.318 -74.578)">
    <path id="Path_53" data-name="Path 53" class="cls-1" d="M439.773,269.972A195.455,195.455,0,1,0,66.259,350.645H422.377a195.112,195.112,0,0,0,17.4-80.674Z"/>
    <line id="Line_38" data-name="Line 38" class="cls-2" x2="381.136" transform="translate(53.75 350.645)"/>
    <line id="Line_39" data-name="Line 39" class="cls-2" x2="12.216" transform="translate(31.761 350.645)"/>
    <line id="Line_40" data-name="Line 40" class="cls-2" x2="12.216" transform="translate(444.659 350.645)"/>
    <ellipse id="Ellipse_9" data-name="Ellipse 9" class="cls-1" cx="87.955" cy="7.33" rx="87.955" ry="7.33" transform="translate(119.423 399.46)"/>
    <path id="Path_54" data-name="Path 54" class="cls-3" d="M309.8,245.051a29.318,29.318,0,0,0,29.318-29.318V157.1A58.636,58.636,0,0,0,276.568,98.46a59.907,59.907,0,0,0-54.727,60.64v56.633a29.318,29.318,0,0,0,29.318,29.318Z"/>
    <path id="Path_55" data-name="Path 55" class="cls-2" d="M309.8,245.051a29.318,29.318,0,0,0,29.318-29.318V157.1A58.636,58.636,0,0,0,276.568,98.46a59.907,59.907,0,0,0-54.727,60.64v56.633a29.318,29.318,0,0,0,29.318,29.318Z"/>
    <path id="Path_56" data-name="Path 56" class="cls-3" d="M280.477,236.256a76.227,76.227,0,0,0-76.227,76.472V333.25c0,38.651-13.731,43.977-28.927,43.977H163.2v26.386h12.118c21.3,0,58.245-17.737,58.245-52.773h93.818c0,22.282-16.418,26.386-28.927,26.386H286.341v26.386h12.118c24.041-.244,58.245-5.375,58.245-53.017V312.727a76.178,76.178,0,0,0-76.227-76.472Z"/>
    <path id="Path_57" data-name="Path 57" class="cls-2" d="M280.477,236.256a76.227,76.227,0,0,0-76.227,76.472V333.25c0,38.651-13.731,43.977-28.927,43.977H163.2v26.386h12.118c21.3,0,58.245-17.737,58.245-52.773h93.818c0,22.282-16.418,26.386-28.927,26.386H286.341v26.386h12.118c24.041-.244,58.245-5.375,58.245-53.017V312.727a76.178,76.178,0,0,0-76.227-76.472Z"/>
    <line id="Line_41" data-name="Line 41" class="cls-2" y2="35.182" transform="translate(233.568 315.415)"/>
    <line id="Line_42" data-name="Line 42" class="cls-2" y2="35.182" transform="translate(327.386 315.415)"/>
    <path id="Path_58" data-name="Path 58" class="cls-4" d="M286.341,400.682h-8.8a11.727,11.727,0,0,1,0-23.455h8.8Z"/>
    <path id="Path_59" data-name="Path 59" class="cls-4" d="M163.2,400.682h-8.8a11.727,11.727,0,1,1,0-23.455h8.8Z"/>
    <line id="Line_43" data-name="Line 43" class="cls-2" y2="76.227" transform="translate(280.477 274.369)"/>
    <path id="Path_60" data-name="Path 60" class="cls-3" d="M298.068,239.188l-17.591,35.182-17.591-35.182V224.528h35.182Z"/>
    <path id="Path_61" data-name="Path 61" class="cls-2" d="M298.068,239.188l-17.591,35.182-17.591-35.182V224.528h35.182Z"/>
    <path id="Path_62" data-name="Path 62" class="cls-4" d="M253.016,266.209a4.851,4.851,0,0,0,7.818-.147l8.8-12.216a4.886,4.886,0,0,0,0-5.815l-7.232-9.773a76.227,76.227,0,0,0-23.015,9.773Z"/>
    <path id="Path_63" data-name="Path 63" class="cls-4" d="M307.841,266.209a4.886,4.886,0,0,1-7.818,0l-8.649-12.118a4.886,4.886,0,0,1,0-5.815l7.232-9.773a76.472,76.472,0,0,1,23.064,9.773Z"/>
    <path id="Path_64" data-name="Path 64" class="cls-4" d="M330.318,171.756V155.973a52.675,52.675,0,0,1-66.748-11.825,29.807,29.807,0,0,1-27.07,21.989,26,26,0,0,1-5.864-.684V172a8.844,8.844,0,0,0-8.8,8.8v2.932a8.844,8.844,0,0,0,8.8,8.8h.831a49.792,49.792,0,0,0,98.069,0h.782a8.8,8.8,0,0,0,8.8-8.8V180.8a8.8,8.8,0,0,0-8.8-9.04Z"/>
    <path id="Path_65" data-name="Path 65" class="cls-5" d="M257.023,192.278a5.864,5.864,0,1,1-5.864-5.864,5.864,5.864,0,0,1,5.864,5.864Z"/>
    <path id="Path_66" data-name="Path 66" class="cls-5" d="M315.659,192.278a5.864,5.864,0,1,1-5.864-5.864A5.864,5.864,0,0,1,315.659,192.278Z"/>
    <path id="Path_67" data-name="Path 67" class="cls-2" d="M265.818,204.006a21.256,21.256,0,0,0,29.318,0"/>
    <path id="Path_68" data-name="Path 68" class="cls-2" d="M306.864,177.619a7.965,7.965,0,0,0-14.659,0"/>
    <path id="Path_69" data-name="Path 69" class="cls-2" d="M268.75,176.642a7.965,7.965,0,0,0-14.659,0"/>
    <path id="Path_70" data-name="Path 70" class="cls-2" d="M210.114,192.278v8.8A26.386,26.386,0,0,0,236.5,227.46h14.659"/>
    <path id="Path_71" data-name="Path 71" class="cls-4" d="M215.977,168.824H227.7v29.318H215.977a5.864,5.864,0,0,1-5.864-5.864V174.688A5.864,5.864,0,0,1,215.977,168.824Z"/>
    <path id="Path_72" data-name="Path 72" class="cls-6" d="M221.841,192.278a5.864,5.864,0,1,0,11.727,0V174.688a5.864,5.864,0,1,0-11.727,0Z"/>
    <path id="Path_73" data-name="Path 73" class="cls-4" d="M339.114,168.824h11.727v29.318H339.114a5.864,5.864,0,0,1-5.864-5.864V174.688A5.864,5.864,0,0,1,339.114,168.824Z" transform="translate(684.091 366.966) rotate(180)"/>
    <path id="Path_74" data-name="Path 74" class="cls-6" d="M339.114,192.278a5.864,5.864,0,1,1-11.727,0V174.688a5.864,5.864,0,1,1,11.727,0Z"/>
    <path id="Path_75" data-name="Path 75" class="cls-6" d="M268.75,227.46a8.8,8.8,0,1,1-8.8-8.8,8.8,8.8,0,0,1,8.8,8.8Z"/>
    <path id="Path_76" data-name="Path 76" class="cls-2" d="M210.114,183.483V157.1a70.364,70.364,0,1,1,140.727,0v26.386"/>
    <path id="Path_77" data-name="Path 77" class="cls-7" d="M225.408,392.131h10.9L213,319.764a4.886,4.886,0,0,0-4.886-3.372h-7.134Z"/>
    <path id="Path_78" data-name="Path 78" class="cls-5" d="M130.124,392.131h95.284l-24.432-75.739h-88.59a4.886,4.886,0,0,0-4.642,6.4Z"/>
    <path id="Path_79" data-name="Path 79" class="cls-7" d="M130.124,392.131h100.17v12.216H139.9a9.773,9.773,0,0,1-9.773-9.773Z"/>
    <path id="Path_80" data-name="Path 80" class="cls-7" d="M230.294,392.131h43.977a2.443,2.443,0,0,1,2.443,2.443,9.773,9.773,0,0,1-9.773,9.773H230.294Z"/>
    <path id="Path_81" data-name="Path 81" class="cls-8" d="M171.023,351.818a5.57,5.57,0,0,1,2.443-4.886,5.522,5.522,0,0,0-4.4-2.345c-1.857,0-3.665,1.075-4.593,1.075s-2.394-1.075-3.958-1.026a5.864,5.864,0,0,0-4.886,2.981,12.607,12.607,0,0,0,1.515,12.118c1.026,1.466,2.248,3.078,3.811,3.03s2.1-.977,3.909-.977,2.394.977,3.958.928,2.688-1.466,3.714-2.932a15.786,15.786,0,0,0,1.661-3.42,5.18,5.18,0,0,1-3.176-4.544Z"/>
    <line id="Line_44" data-name="Line 44" class="cls-2" y1="2.199" x2="2.199" transform="translate(166.772 336.182)"/>
    <path id="Path_82" data-name="Path 82" class="cls-9" d="M130.124,392.131h95.284l-24.432-75.739h-88.59a4.886,4.886,0,0,0-4.642,6.4Z"/>
  </g>
</svg>
