<svg xmlns="http://www.w3.org/2000/svg" viewBox="0 0 256.421 200">
  <defs>
    <style>
      .cls-1 {
        fill: #f0f2ff;
      }

      .cls-2 {
        fill: none;
      }

      .cls-2, .cls-5, .cls-6, .cls-7, .cls-8 {
        stroke: #4550e5;
        stroke-linejoin: round;
        stroke-width: 2.914px;
      }

      .cls-2, .cls-5, .cls-6 {
        stroke-linecap: round;
      }

      .cls-3, .cls-6, .cls-7 {
        fill: #d6daff;
      }

      .cls-4, .cls-5, .cls-8 {
        fill: #fff;
      }
    </style>
  </defs>
  <g id="monitor-window" transform="translate(-17.483 -46.426)">
    <path id="Path_34" data-name="Path 34" class="cls-1" d="M263.705,162.973A116.555,116.555,0,1,0,40.969,211.052H253.332A116.2,116.2,0,0,0,263.705,162.973Z"/>
    <line id="Line_11" data-name="Line 11" class="cls-2" x2="227.282" transform="translate(32.053 211.052)"/>
    <line id="Line_12" data-name="Line 12" class="cls-2" x2="7.285" transform="translate(18.94 211.052)"/>
    <line id="Line_13" data-name="Line 13" class="cls-2" x2="7.285" transform="translate(265.162 211.052)"/>
    <rect id="Rectangle_9" data-name="Rectangle 9" class="cls-3" width="140.74" height="100.529" rx="10.49" transform="translate(68.913 120.314)"/>
    <path id="Path_35" data-name="Path 35" class="cls-4" d="M154.027,120.314H80.977a12.063,12.063,0,0,0-12.063,12.063v73.051Z"/>
    <rect id="Rectangle_10" data-name="Rectangle 10" class="cls-2" width="140.74" height="100.529" rx="10.49" transform="translate(68.913 120.314)"/>
    <path id="Path_36" data-name="Path 36" class="cls-5" d="M197.59,220.842A12.063,12.063,0,0,0,209.8,208.779v-4.021H68.913v4.021a12.063,12.063,0,0,0,12.063,12.063Z"/>
    <path id="Path_37" data-name="Path 37" class="cls-4" d="M151.347,236.927H127.22l2.011-16.085h20.106Z"/>
    <path id="Path_38" data-name="Path 38" class="cls-2" d="M151.347,236.927H127.22l2.011-16.085h20.106Z"/>
    <path id="Path_39" data-name="Path 39" class="cls-5" d="M165.421,244.969H113.146a8.042,8.042,0,0,1,8.042-8.042h36.161a8.071,8.071,0,0,1,8.071,8.042Z"/>
    <path id="Path_40" data-name="Path 40" class="cls-5" d="M101.082,106.24H217.637v69.408a6.993,6.993,0,0,1-6.993,6.993H108.076a6.993,6.993,0,0,1-6.993-6.993Z"/>
    <path id="Path_41" data-name="Path 41" class="cls-5" d="M108.076,82.113H210.7a6.993,6.993,0,0,1,6.993,6.993V106.24H101.141V89.106a6.993,6.993,0,0,1,6.935-6.993Z"/>
    <circle id="Ellipse_5" data-name="Ellipse 5" class="cls-6" cx="4.021" cy="4.021" r="4.021" transform="translate(109.125 90.155)"/>
    <circle id="Ellipse_6" data-name="Ellipse 6" class="cls-6" cx="4.021" cy="4.021" r="4.021" transform="translate(125.209 90.155)"/>
    <circle id="Ellipse_7" data-name="Ellipse 7" class="cls-6" cx="4.021" cy="4.021" r="4.021" transform="translate(141.294 90.155)"/>
    <rect id="Rectangle_11" data-name="Rectangle 11" class="cls-6" width="16.085" height="16.085" rx="2.914" transform="translate(137.273 130.367)"/>
    <rect id="Rectangle_12" data-name="Rectangle 12" class="cls-6" width="16.085" height="16.085" rx="2.914" transform="translate(163.41 130.367)"/>
    <rect id="Rectangle_13" data-name="Rectangle 13" class="cls-6" width="16.085" height="16.085" rx="2.914" transform="translate(189.547 130.367)"/>
    <rect id="Rectangle_14" data-name="Rectangle 14" class="cls-6" width="16.085" height="16.085" rx="2.914" transform="translate(137.273 154.494)"/>
    <rect id="Rectangle_15" data-name="Rectangle 15" class="cls-6" width="16.085" height="16.085" rx="2.914" transform="translate(163.41 154.494)"/>
    <rect id="Rectangle_16" data-name="Rectangle 16" class="cls-6" width="16.085" height="16.085" rx="2.914" transform="translate(189.547 154.494)"/>
    <rect id="Rectangle_17" data-name="Rectangle 17" class="cls-6" width="16.085" height="8.042" rx="2.914" transform="translate(113.146 114.282)"/>
    <rect id="Rectangle_18" data-name="Rectangle 18" class="cls-7" width="68.359" height="8.042" rx="2.914" transform="translate(137.273 114.282)"/>
    <line id="Line_14" data-name="Line 14" class="cls-2" x2="16.085" transform="translate(113.146 130.367)"/>
    <line id="Line_15" data-name="Line 15" class="cls-2" x2="16.085" transform="translate(113.146 138.409)"/>
    <line id="Line_16" data-name="Line 16" class="cls-2" x2="16.085" transform="translate(113.146 146.451)"/>
    <line id="Line_17" data-name="Line 17" class="cls-2" x2="16.085" transform="translate(113.146 154.494)"/>
    <line id="Line_18" data-name="Line 18" class="cls-2" x2="16.085" transform="translate(113.146 162.536)"/>
    <line id="Line_19" data-name="Line 19" class="cls-2" x2="10.053" transform="translate(113.146 170.578)"/>
    <path id="Path_42" data-name="Path 42" class="cls-8" d="M243.833,214.607c-.583,2.127-1.748,2.185-2.593,0l-13.2-31.5c-.845-2.04,0-2.914,2.185-2.156l31.645,13.171c2.04.874,1.952,2.04-.175,2.622l-10.14,2.914a7.867,7.867,0,0,0-4.954,4.924Z"/>
    <circle id="Ellipse_8" data-name="Ellipse 8" class="cls-2" cx="1.69" cy="1.69" r="1.69" transform="translate(137.593 211.11)"/>
  </g>
</svg>
