<svg xmlns="http://www.w3.org/2000/svg" viewBox="0 0 269.338 200">
  <defs>
    <style>
      .cls-1 {
        fill: #f0f2ff;
      }

      .cls-2, .cls-7, .cls-8, .cls-9 {
        fill: none;
      }

      .cls-2, .cls-5, .cls-6, .cls-7, .cls-8, .cls-9 {
        stroke: #4550e5;
      }

      .cls-2, .cls-5, .cls-6, .cls-7, .cls-8 {
        stroke-linecap: round;
        stroke-linejoin: round;
      }

      .cls-2, .cls-5, .cls-6, .cls-9 {
        stroke-width: 2.737px;
      }

      .cls-3, .cls-6 {
        fill: #d6daff;
      }

      .cls-4, .cls-5 {
        fill: #fff;
      }

      .cls-7 {
        stroke-width: 2.737px;
      }

      .cls-8 {
        stroke-width: 2.737px;
      }

      .cls-9 {
        stroke-miterlimit: 10;
      }
    </style>
  </defs>
  <g id="monitor-cash-credit-card" transform="translate(-1.745 -36.902)">
    <path id="Path_15" data-name="Path 15" class="cls-1" d="M246.073,146.319A109.5,109.5,0,1,0,36.847,191.624H236.327A109.089,109.089,0,0,0,246.073,146.319Z"/>
    <line id="Line_4" data-name="Line 4" class="cls-2" x2="213.524" transform="translate(28.443 191.487)"/>
    <line id="Line_5" data-name="Line 5" class="cls-2" x2="6.844" transform="translate(16.124 191.487)"/>
    <line id="Line_6" data-name="Line 6" class="cls-2" x2="6.844" transform="translate(247.442 191.487)"/>
    <ellipse id="Ellipse_2" data-name="Ellipse 2" class="cls-1" cx="43.115" cy="4.298" rx="43.115" ry="4.298" transform="translate(94.06 228.307)"/>
    <path id="Path_16" data-name="Path 16" class="cls-3" d="M190.611,194.663V139.612a6.9,6.9,0,0,0-6.9-6.9H90.638a6.9,6.9,0,0,0-6.926,6.9v55.051Z"/>
    <path id="Path_17" data-name="Path 17" class="cls-4" d="M97.509,194.663,159.6,132.577H90.611a6.9,6.9,0,0,0-6.9,7.035v55.051Z"/>
    <path id="Path_18" data-name="Path 18" class="cls-5" d="M190.611,194.663V208.35a6.9,6.9,0,0,1-6.9,6.9H90.638a6.9,6.9,0,0,1-6.9-6.9V194.663Z"/>
    <path id="Path_19" data-name="Path 19" class="cls-6" d="M140.625,205.011a3.449,3.449,0,1,1-3.449-3.449,3.449,3.449,0,0,1,3.449,3.449Z"/>
    <path id="Path_20" data-name="Path 20" class="cls-5" d="M154.422,229.155H119.9l1.752-13.8H152.7Z"/>
    <line id="Line_7" data-name="Line 7" class="cls-2" x2="55.16" transform="translate(109.582 229.155)"/>
    <path id="Path_21" data-name="Path 21" class="cls-2" d="M190.611,194.663V139.612a6.9,6.9,0,0,0-6.9-6.9H90.638a6.9,6.9,0,0,0-6.926,6.9v55.051Z"/>
    <path id="Path_22" data-name="Path 22" class="cls-4" d="M157.871,163.62a20.7,20.7,0,1,1-20.7-20.7A20.7,20.7,0,0,1,157.871,163.62Z"/>
    <path id="Path_23" data-name="Path 23" class="cls-2" d="M157.871,163.62a20.7,20.7,0,1,1-20.7-20.7A20.7,20.7,0,0,1,157.871,163.62Z"/>
    <path id="Path_24" data-name="Path 24" class="cls-3" d="M133.726,175.692a5.147,5.147,0,0,1-3.668-1.506l-6.871-6.9a5.174,5.174,0,0,1,7.309-7.309l3.258,3.23,8.4-8.4a5.174,5.174,0,0,1,7.309,7.309l-12.072,12.072A5.119,5.119,0,0,1,133.726,175.692Z"/>
    <path id="Path_25" data-name="Path 25" class="cls-2" d="M133.726,175.692a5.147,5.147,0,0,1-3.668-1.506l-6.871-6.9a5.174,5.174,0,0,1,7.309-7.309l3.258,3.23,8.4-8.4a5.174,5.174,0,0,1,7.309,7.309l-12.072,12.072A5.119,5.119,0,0,1,133.726,175.692Z"/>
    <rect id="Rectangle_3" data-name="Rectangle 3" class="cls-4" width="68.985" height="41.391" rx="2.874" transform="translate(3.435 97.92) rotate(-15.83)"/>
    <path id="Path_26" data-name="Path 26" class="cls-4" d="M70.682,107.556l-3.75-13.277a6.926,6.926,0,0,1-8.541-4.763l-39.8,11.278a6.926,6.926,0,0,1-4.763,8.541l3.75,13.277a6.9,6.9,0,0,1,8.541,4.736l39.8-11.278A6.9,6.9,0,0,1,70.682,107.556Z"/>
    <path id="Path_27" data-name="Path 27" class="cls-3" d="M48.892,106.543a6.9,6.9,0,1,1-8.514-4.736,6.9,6.9,0,0,1,8.514,4.736Z"/>
    <path id="Path_28" data-name="Path 28" class="cls-2" d="M48.892,106.543a6.9,6.9,0,1,1-8.514-4.736,6.9,6.9,0,0,1,8.514,4.736Z"/>
    <path id="Path_29" data-name="Path 29" class="cls-2" d="M70.682,107.556l-3.75-13.277a6.926,6.926,0,0,1-8.541-4.763l-39.8,11.278a6.926,6.926,0,0,1-4.763,8.541l3.75,13.277a6.9,6.9,0,0,1,8.541,4.736l39.8-11.278A6.9,6.9,0,0,1,70.682,107.556Z"/>
    <rect id="Rectangle_4" data-name="Rectangle 4" class="cls-7" width="68.985" height="41.391" rx="2.874" transform="translate(3.435 97.92) rotate(-15.83)"/>
    <path id="Path_30" data-name="Path 30" class="cls-4" d="M254.094,136.163l-48.645-13.934a5.721,5.721,0,0,1-3.942-7.09L209.719,86.4a5.721,5.721,0,0,1,7.09-3.942l48.727,13.934a5.749,5.749,0,0,1,3.942,7.09l-8.212,28.744a5.721,5.721,0,0,1-7.172,3.942Z"/>
    <rect id="Rectangle_5" data-name="Rectangle 5" class="cls-3" width="62.086" height="6.898" transform="translate(209.439 87.495) rotate(15.98)"/>
    <line id="Line_8" data-name="Line 8" class="cls-2" x2="16.589" y2="4.736" transform="translate(208.46 115.933)"/>
    <rect id="Rectangle_6" data-name="Rectangle 6" class="cls-4" width="48.289" height="6.898" transform="translate(212.269 102.644) rotate(15.98)"/>
    <path id="Path_31" data-name="Path 31" class="cls-2" d="M254.094,136.163l-48.645-13.934a5.721,5.721,0,0,1-3.942-7.09L209.719,86.4a5.721,5.721,0,0,1,7.09-3.942l48.727,13.934a5.749,5.749,0,0,1,3.942,7.09l-8.212,28.744a5.721,5.721,0,0,1-7.172,3.942Z"/>
    <rect id="Rectangle_7" data-name="Rectangle 7" class="cls-8" width="62.086" height="6.898" transform="translate(209.439 87.495) rotate(15.98)"/>
    <rect id="Rectangle_8" data-name="Rectangle 8" class="cls-8" width="48.289" height="6.898" transform="translate(212.269 102.644) rotate(15.98)"/>
    <circle id="Ellipse_3" data-name="Ellipse 3" class="cls-3" cx="22.995" cy="22.995" r="22.995" transform="translate(114.181 58.856)"/>
    <path id="Path_32" data-name="Path 32" class="cls-4" d="M137.176,58.856a22.995,22.995,0,0,0-16.261,39.256L153.436,65.7A23.022,23.022,0,0,0,137.176,58.856Z"/>
    <circle id="Ellipse_4" data-name="Ellipse 4" class="cls-9" cx="22.995" cy="22.995" r="22.995" transform="translate(114.181 58.856)"/>
    <line id="Line_9" data-name="Line 9" class="cls-2" y2="2.874" transform="translate(137.176 93.348)"/>
    <line id="Line_10" data-name="Line 10" class="cls-2" y2="2.874" transform="translate(137.176 67.479)"/>
    <path id="Path_33" data-name="Path 33" class="cls-2" d="M131.4,87.6a5.749,5.749,0,1,0,5.749-5.749A5.749,5.749,0,1,1,142.9,76.1"/>
  </g>
</svg>
