<svg xmlns="http://www.w3.org/2000/svg" viewBox="0 0 251.716 200">
  <defs>
    <style>
      .cls-1 {
        fill: #f0f2ff;
      }

      .cls-2, .cls-8 {
        fill: none;
      }

      .cls-2, .cls-5, .cls-6, .cls-7, .cls-8 {
        stroke: #4550e5;
        stroke-linejoin: round;
        stroke-width: 2.86px;
      }

      .cls-2, .cls-5 {
        stroke-linecap: round;
      }

      .cls-3, .cls-6 {
        fill: #d6daff;
      }

      .cls-4, .cls-5, .cls-7 {
        fill: #fff;
      }
    </style>
  </defs>
  <g id="monitor-loading-progress" transform="translate(-17.163 -42.42)">
    <path id="Path_1" data-name="Path 1" class="cls-1" d="M257.437,158.009a114.416,114.416,0,1,0-218.65,47.2H247.254A113.987,113.987,0,0,0,257.437,158.009Z"/>
    <line id="Line_1" data-name="Line 1" class="cls-2" x2="223.112" transform="translate(31.465 205.206)"/>
    <line id="Line_2" data-name="Line 2" class="cls-2" x2="7.151" transform="translate(18.593 205.206)"/>
    <line id="Line_3" data-name="Line 3" class="cls-2" x2="7.151" transform="translate(260.297 205.206)"/>
    <ellipse id="Ellipse_1" data-name="Ellipse 1" class="cls-1" cx="42.477" cy="4.891" rx="42.477" ry="4.891" transform="translate(98.913 232.637)"/>
    <path id="Path_2" data-name="Path 2" class="cls-3" d="M206.751,123.284a10.355,10.355,0,0,0-10.383-10.355H89.674a10.355,10.355,0,0,0-10.383,10.355v70.738h127.46Z"/>
    <path id="Path_3" data-name="Path 3" class="cls-4" d="M164.445,112.929H89.674a10.355,10.355,0,0,0-10.383,10.355v70.738h4.062Z"/>
    <path id="Path_4" data-name="Path 4" class="cls-4" d="M158.467,224.914H127.574l1.916-15.446H156.55Z"/>
    <path id="Path_5" data-name="Path 5" class="cls-2" d="M158.467,224.914H127.574l1.916-15.446H156.55Z"/>
    <path id="Path_6" data-name="Path 6" class="cls-5" d="M165.132,232.637H120.91a2.4,2.4,0,0,1-2.231-3.347,7.723,7.723,0,0,1,6.951-4.376h34.783a7.723,7.723,0,0,1,6.951,4.376,2.4,2.4,0,0,1-2.231,3.347Z"/>
    <path id="Path_7" data-name="Path 7" class="cls-5" d="M196.367,209.468a10.355,10.355,0,0,0,10.383-10.355v-5.092H79.291v5.092a10.355,10.355,0,0,0,10.383,10.355Z"/>
    <path id="Path_8" data-name="Path 8" class="cls-2" d="M206.751,123.284a10.355,10.355,0,0,0-10.383-10.355H89.674a10.355,10.355,0,0,0-10.383,10.355v70.738h127.46Z"/>
    <path id="Path_9" data-name="Path 9" class="cls-2" d="M144.737,201.745a1.716,1.716,0,1,1-1.716-1.716A1.716,1.716,0,0,1,144.737,201.745Z"/>
    <path id="Path_10" data-name="Path 10" class="cls-6" d="M181.322,166.447a6.894,6.894,0,0,1-6.836,6.922H111.556a6.922,6.922,0,0,1,0-13.816h62.929A6.894,6.894,0,0,1,181.322,166.447Z"/>
    <path id="Path_11" data-name="Path 11" class="cls-7" d="M157.723,159.554H111.556a6.922,6.922,0,0,0,0,13.816h46.167Z"/>
    <path id="Path_12" data-name="Path 12" class="cls-8" d="M157.723,159.554H111.556a6.922,6.922,0,0,0,0,13.816h46.167Z"/>
    <path id="Path_13" data-name="Path 13" class="cls-4" d="M120.738,66.762a3.49,3.49,0,0,0-2.86,5.578L140.16,101.2a3.49,3.49,0,0,0,5.492,0L167.935,72.34a3.49,3.49,0,0,0-2.86-5.578h-8.581V50.744A6.894,6.894,0,0,0,149.6,43.85H136.1a6.894,6.894,0,0,0-6.894,6.894V66.762Z"/>
    <path id="Path_14" data-name="Path 14" class="cls-8" d="M120.738,66.762a3.49,3.49,0,0,0-2.86,5.578L140.16,101.2a3.49,3.49,0,0,0,5.492,0L167.935,72.34a3.49,3.49,0,0,0-2.86-5.578h-8.581V50.744A6.894,6.894,0,0,0,149.6,43.85H136.1a6.894,6.894,0,0,0-6.894,6.894V66.762Z"/>
  </g>
</svg>
