<svg xmlns="http://www.w3.org/2000/svg" viewBox="0 0 399.795 330">
  <defs>
    <style>
      .cls-1 {
        fill: #f0f2ff;
      }

      .cls-2, .cls-5 {
        fill: none;
      }

      .cls-2, .cls-3, .cls-5, .cls-7 {
        stroke: #4550e5;
        stroke-linejoin: round;
        stroke-width: 4.543px;
      }

      .cls-2, .cls-3, .cls-7 {
        stroke-linecap: round;
      }

      .cls-3, .cls-6 {
        fill: #d6daff;
      }

      .cls-4, .cls-7 {
        fill: #fff;
      }
    </style>
  </defs>
  <g id="notre-dame" transform="translate(-27.259 -62.163)">
    <path id="Path_1" data-name="Path 1" class="cls-1" d="M408.881,243.875A181.725,181.725,0,1,0,61.6,318.837h331.1a181.179,181.179,0,0,0,16.174-74.962Z"/>
    <line id="Line_1" data-name="Line 1" class="cls-2" x2="354.364" transform="translate(49.974 318.837)"/>
    <line id="Line_2" data-name="Line 2" class="cls-2" x2="11.358" transform="translate(29.53 318.837)"/>
    <line id="Line_3" data-name="Line 3" class="cls-2" x2="11.358" transform="translate(413.425 318.837)"/>
    <path id="Path_2" data-name="Path 2" class="cls-3" d="M291.351,198.126l16.31,29.894a22.715,22.715,0,0,1,2.771,10.9v54.518l3.68,3.725a9.086,9.086,0,0,1,2.68,6.406v15.31H291.351Z"/>
    <line id="Line_4" data-name="Line 4" class="cls-2" x2="15.901" transform="translate(297.711 283.991)"/>
    <path id="Path_3" data-name="Path 3" class="cls-3" d="M125.981,198.126l-16.31,29.894a22.716,22.716,0,0,0-2.771,10.9v54.518l-3.725,3.725a9.086,9.086,0,0,0-2.635,6.406v15.31h25.442Z"/>
    <path id="Path_4" data-name="Path 4" class="cls-4" d="M358.907,101.539a6.951,6.951,0,0,0-2.726.545,12.675,12.675,0,0,0-25.078,0,6.951,6.951,0,0,0-2.726-.545,7.632,7.632,0,0,0,0,15.265h30.53a7.632,7.632,0,0,0,0-15.265Z"/>
    <path id="Path_5" data-name="Path 5" class="cls-5" d="M358.907,101.539a6.951,6.951,0,0,0-2.726.545,12.675,12.675,0,0,0-25.078,0,6.951,6.951,0,0,0-2.726-.545,7.632,7.632,0,0,0,0,15.265h30.53a7.632,7.632,0,0,0,0-15.265Z"/>
    <path id="Path_6" data-name="Path 6" class="cls-4" d="M240.468,77.279v79.5h-63.6v-79.5H119.621V283.991l3.18,3.18v12.721l-3.18,3.18v15.9H297.711V299.892l-3.18-3.18v-9.541l3.18-3.18V77.279Z"/>
    <path id="Path_7" data-name="Path 7" class="cls-5" d="M358.907,101.539a6.951,6.951,0,0,0-2.726.545,12.675,12.675,0,0,0-25.078,0,6.951,6.951,0,0,0-2.726-.545,7.632,7.632,0,0,0,0,15.265h30.53a7.632,7.632,0,0,0,0-15.265Z"/>
    <path id="Path_8" data-name="Path 8" class="cls-2" d="M240.468,77.279v79.5h-63.6v-79.5H119.621V283.991l3.18,3.18v12.721l-3.18,3.18v15.9H297.711V299.892l-3.18-3.18v-9.541l3.18-3.18V77.279Z"/>
    <rect id="Rectangle_4" data-name="Rectangle 4" class="cls-3" width="178.091" height="19.081" transform="translate(119.621 239.468)"/>
    <path id="Path_9" data-name="Path 9" class="cls-3" d="M301.118,156.783H116.168a1.59,1.59,0,0,0-1.318,2.453h0a28.258,28.258,0,0,1,4.543,15.628v7.36H297.484v-7.36a28.213,28.213,0,0,1,4.543-15.628h0a1.59,1.59,0,0,0-.909-2.453Z"/>
    <path id="Path_10" data-name="Path 10" class="cls-3" d="M208.666,271.27h0a25.305,25.305,0,0,0-15.9,23.488v24.215h31.8V294.758a25.4,25.4,0,0,0-15.9-23.488Z"/>
    <path id="Path_11" data-name="Path 11" class="cls-3" d="M148.242,277.631h0a25.9,25.9,0,0,0-12.721,23.488v17.855h25.442V301.118a25.987,25.987,0,0,0-12.721-23.488Z"/>
    <path id="Path_12" data-name="Path 12" class="cls-3" d="M148.242,198.126h0a25.9,25.9,0,0,0-12.721,23.488v17.854h25.442V221.614A25.987,25.987,0,0,0,148.242,198.126Z"/>
    <path id="Path_13" data-name="Path 13" class="cls-3" d="M269.089,198.126h0a25.9,25.9,0,0,0-12.721,23.488v17.854h25.305V221.614a25.987,25.987,0,0,0-12.584-23.488Z"/>
    <path id="Path_14" data-name="Path 14" class="cls-3" d="M269.089,277.631h0a25.9,25.9,0,0,0-12.721,23.488v17.854h25.305V301.118a25.987,25.987,0,0,0-12.584-23.488Z"/>
    <line id="Line_5" data-name="Line 5" class="cls-2" y2="41.342" transform="translate(176.864 239.468)"/>
    <line id="Line_6" data-name="Line 6" class="cls-2" y2="41.342" transform="translate(240.468 239.468)"/>
    <line id="Line_7" data-name="Line 7" class="cls-2" y2="15.901" transform="translate(176.864 182.225)"/>
    <line id="Line_8" data-name="Line 8" class="cls-2" y2="15.901" transform="translate(240.468 182.225)"/>
    <path id="Path_15" data-name="Path 15" class="cls-3" d="M208.666,191.765h0a25.442,25.442,0,0,0-25.442,25.441v22.261h50.883V217.207A25.442,25.442,0,0,0,208.666,191.765Z"/>
    <circle id="Ellipse_1" data-name="Ellipse 1" class="cls-6" cx="15.901" cy="15.901" r="15.901" transform="translate(192.765 201.306)"/>
    <path id="Path_16" data-name="Path 16" class="cls-4" d="M220.024,206.167a15.674,15.674,0,0,0-11.358-4.861,15.856,15.856,0,0,0-4.543,31.12Z"/>
    <circle id="Ellipse_2" data-name="Ellipse 2" class="cls-2" cx="15.901" cy="15.901" r="15.901" transform="translate(192.765 201.306)"/>
    <line id="Line_9" data-name="Line 9" class="cls-2" y2="6.36" transform="translate(176.864 290.351)"/>
    <line id="Line_10" data-name="Line 10" class="cls-2" y2="6.36" transform="translate(240.468 290.351)"/>
    <line id="Line_11" data-name="Line 11" class="cls-2" y1="19.081" transform="translate(148.242 239.468)"/>
    <line id="Line_12" data-name="Line 12" class="cls-2" y1="9.541" transform="translate(132.341 249.009)"/>
    <line id="Line_13" data-name="Line 13" class="cls-2" y1="9.541" transform="translate(164.143 249.009)"/>
    <line id="Line_14" data-name="Line 14" class="cls-2" y1="19.081" transform="translate(208.666 239.468)"/>
    <line id="Line_15" data-name="Line 15" class="cls-2" y1="9.541" transform="translate(192.765 249.009)"/>
    <line id="Line_16" data-name="Line 16" class="cls-2" y1="9.541" transform="translate(224.567 249.009)"/>
    <line id="Line_17" data-name="Line 17" class="cls-2" y1="19.081" transform="translate(269.089 239.468)"/>
    <line id="Line_18" data-name="Line 18" class="cls-2" y1="9.541" transform="translate(253.189 249.009)"/>
    <line id="Line_19" data-name="Line 19" class="cls-2" y1="9.541" transform="translate(284.99 249.009)"/>
    <path id="Path_17" data-name="Path 17" class="cls-7" d="M144.608,162.689l-2.726-2.726-2.726,2.726a12.357,12.357,0,0,0-3.635,8.814v10.722h12.721V171.5a12.539,12.539,0,0,0-3.635-8.814Z"/>
    <path id="Path_18" data-name="Path 18" class="cls-7" d="M178,162.689l-2.726-2.726-2.726,2.726a12.357,12.357,0,0,0-3.635,8.814v10.722h12.812V171.5A12.539,12.539,0,0,0,178,162.689Z"/>
    <path id="Path_19" data-name="Path 19" class="cls-7" d="M211.392,162.689l-2.726-2.726-2.726,2.726a12.357,12.357,0,0,0-3.634,8.814v10.722h12.721V171.5A12.539,12.539,0,0,0,211.392,162.689Z"/>
    <path id="Path_20" data-name="Path 20" class="cls-7" d="M244.784,162.689l-2.726-2.726-2.726,2.726A12.357,12.357,0,0,0,235.7,171.5v10.722h12.721V171.5A12.539,12.539,0,0,0,244.784,162.689Z"/>
    <path id="Path_21" data-name="Path 21" class="cls-7" d="M272.588,162.689l2.726-2.726,2.726,2.726a12.539,12.539,0,0,1,3.634,8.814v10.722H268.953V171.5a12.357,12.357,0,0,1,3.635-8.814Z"/>
    <line id="Line_20" data-name="Line 20" class="cls-2" y2="6.36" transform="translate(160.963 156.783)"/>
    <line id="Line_21" data-name="Line 21" class="cls-2" y2="6.36" transform="translate(129.161 156.783)"/>
    <line id="Line_22" data-name="Line 22" class="cls-2" y2="6.36" transform="translate(192.765 156.783)"/>
    <line id="Line_23" data-name="Line 23" class="cls-2" y2="6.36" transform="translate(224.567 156.783)"/>
    <line id="Line_24" data-name="Line 24" class="cls-2" y2="6.36" transform="translate(256.369 156.783)"/>
    <line id="Line_25" data-name="Line 25" class="cls-2" y2="6.36" transform="translate(288.171 156.783)"/>
    <path id="Path_22" data-name="Path 22" class="cls-6" d="M206.894,296.712h3.635a4.543,4.543,0,0,1,4.543,4.543v17.718H202.351V301.255A4.543,4.543,0,0,1,206.894,296.712Z"/>
    <path id="Path_23" data-name="Path 23" class="cls-4" d="M210.529,296.712h-3.635a4.543,4.543,0,0,0-4.543,4.543v17.718h.909l11.54-19.127A4.543,4.543,0,0,0,210.529,296.712Z"/>
    <path id="Path_24" data-name="Path 24" class="cls-2" d="M206.894,296.712h3.635a4.543,4.543,0,0,1,4.543,4.543v17.718H202.351V301.255A4.543,4.543,0,0,1,206.894,296.712Z"/>
    <path id="Path_25" data-name="Path 25" class="cls-6" d="M135.521,102.72h0a21.716,21.716,0,0,0-6.36,15.4v38.707h12.721V118.121A21.943,21.943,0,0,0,135.521,102.72Z"/>
    <path id="Path_26" data-name="Path 26" class="cls-4" d="M141.882,124.073v-5.951a21.943,21.943,0,0,0-6.36-15.356h0a21.716,21.716,0,0,0-6.36,15.356V145.38Z"/>
    <path id="Path_27" data-name="Path 27" class="cls-2" d="M135.521,102.72h0a21.716,21.716,0,0,0-6.36,15.4v38.707h12.721V118.121A21.943,21.943,0,0,0,135.521,102.72Z"/>
    <path id="Path_28" data-name="Path 28" class="cls-6" d="M160.963,102.72h0a21.716,21.716,0,0,0-6.5,15.4v38.707h12.721V118.121A21.943,21.943,0,0,0,160.963,102.72Z"/>
    <path id="Path_29" data-name="Path 29" class="cls-4" d="M167.323,124.073v-5.951a21.943,21.943,0,0,0-6.36-15.356h0a21.716,21.716,0,0,0-6.5,15.356V145.38Z"/>
    <path id="Path_30" data-name="Path 30" class="cls-2" d="M160.963,102.72h0a21.716,21.716,0,0,0-6.5,15.4v38.707h12.721V118.121A21.943,21.943,0,0,0,160.963,102.72Z"/>
    <path id="Path_31" data-name="Path 31" class="cls-6" d="M256.369,102.72h0a21.716,21.716,0,0,0-6.5,15.4v38.707h12.721V118.121a21.943,21.943,0,0,0-6.224-15.4Z"/>
    <path id="Path_32" data-name="Path 32" class="cls-4" d="M262.729,124.073v-5.951a21.943,21.943,0,0,0-6.36-15.356h0a21.716,21.716,0,0,0-6.5,15.356V145.38Z"/>
    <path id="Path_33" data-name="Path 33" class="cls-2" d="M256.369,102.72h0a21.716,21.716,0,0,0-6.5,15.4v38.707h12.721V118.121a21.943,21.943,0,0,0-6.224-15.4Z"/>
    <path id="Path_34" data-name="Path 34" class="cls-6" d="M281.674,102.72h0a21.716,21.716,0,0,0-6.224,15.4v38.707h12.721V118.121A21.944,21.944,0,0,0,281.674,102.72Z"/>
    <path id="Path_35" data-name="Path 35" class="cls-4" d="M288.171,124.073v-5.951a21.944,21.944,0,0,0-6.5-15.4h0a21.716,21.716,0,0,0-6.224,15.4V145.38Z"/>
    <path id="Path_36" data-name="Path 36" class="cls-2" d="M281.674,102.72h0a21.716,21.716,0,0,0-6.224,15.4v38.707h12.721V118.121A21.944,21.944,0,0,0,281.674,102.72Z"/>
    <line id="Line_26" data-name="Line 26" class="cls-2" x2="63.604" transform="translate(116.44 89.999)"/>
    <line id="Line_27" data-name="Line 27" class="cls-2" x2="63.604" transform="translate(116.44 77.279)"/>
    <line id="Line_28" data-name="Line 28" class="cls-2" x2="63.604" transform="translate(237.288 89.999)"/>
    <line id="Line_29" data-name="Line 29" class="cls-2" x2="63.604" transform="translate(237.288 77.279)"/>
    <line id="Line_30" data-name="Line 30" class="cls-2" x2="184.451" transform="translate(116.44 182.225)"/>
    <line id="Line_31" data-name="Line 31" class="cls-2" x2="209.893" transform="translate(103.72 239.468)"/>
    <line id="Line_32" data-name="Line 32" class="cls-2" x1="15.901" transform="translate(103.72 283.991)"/>
    <rect id="Rectangle_5" data-name="Rectangle 5" class="cls-3" width="57.243" height="12.721" transform="translate(119.621 77.279)"/>
    <rect id="Rectangle_6" data-name="Rectangle 6" class="cls-3" width="57.243" height="12.721" transform="translate(240.468 77.279)"/>
    <line id="Line_33" data-name="Line 33" class="cls-2" y2="31.802" transform="translate(208.666 201.306)"/>
    <line id="Line_34" data-name="Line 34" class="cls-2" x2="31.802" transform="translate(192.765 217.207)"/>
    <rect id="Rectangle_7" data-name="Rectangle 7" class="cls-6" width="25.442" height="19.081" transform="translate(135.521 220.387)"/>
    <path id="Path_37" data-name="Path 37" class="cls-4" d="M135.521,220.387v19.081h9.541l11.449-19.081Z"/>
    <rect id="Rectangle_8" data-name="Rectangle 8" class="cls-2" width="25.442" height="19.081" transform="translate(135.521 220.387)"/>
    <rect id="Rectangle_9" data-name="Rectangle 9" class="cls-6" width="25.442" height="19.081" transform="translate(256.369 220.387)"/>
    <path id="Path_38" data-name="Path 38" class="cls-4" d="M256.369,220.387v19.081h9.541l11.449-19.081Z"/>
    <rect id="Rectangle_10" data-name="Rectangle 10" class="cls-2" width="25.442" height="19.081" transform="translate(256.369 220.387)"/>
    <rect id="Rectangle_11" data-name="Rectangle 11" class="cls-6" width="25.442" height="19.081" transform="translate(135.521 299.892)"/>
    <path id="Path_39" data-name="Path 39" class="cls-4" d="M135.521,299.892v19.081h9.541l11.449-19.081Z"/>
    <rect id="Rectangle_12" data-name="Rectangle 12" class="cls-2" width="25.442" height="19.081" transform="translate(135.521 299.892)"/>
    <rect id="Rectangle_13" data-name="Rectangle 13" class="cls-6" width="25.442" height="19.081" transform="translate(256.369 299.892)"/>
    <path id="Path_40" data-name="Path 40" class="cls-4" d="M256.369,299.892v19.081h9.541l11.449-19.081Z"/>
    <rect id="Rectangle_14" data-name="Rectangle 14" class="cls-2" width="25.442" height="19.081" transform="translate(256.369 299.892)"/>
    <path id="Path_41" data-name="Path 41" class="cls-3" d="M358.907,282.9c0,10.54-3.771,19.672-8,19.672s-8-9.086-8-19.672,8-38.3,8-38.3S358.907,272.315,358.907,282.9Z"/>
    <line id="Line_35" data-name="Line 35" class="cls-2" y2="16.401" transform="translate(351.047 302.572)"/>
    <path id="Path_42" data-name="Path 42" class="cls-2" d="M78.142,254.415a12.448,12.448,0,0,1-24.851,0"/>
    <path id="Path_43" data-name="Path 43" class="cls-7" d="M57.925,249.872H48.839a2.408,2.408,0,0,1-1.454-.545,1.908,1.908,0,0,0,0,.727l.909,6.769a2.317,2.317,0,0,0,2.272,1.954h5.861a2.226,2.226,0,0,0,2.226-1.954l.909-6.769a1.908,1.908,0,0,0,0-.727,2.181,2.181,0,0,1-1.636.545Z"/>
    <path id="Path_44" data-name="Path 44" class="cls-3" d="M53.291,240.059a6.906,6.906,0,0,0-6.86,6.906c0,2,1,2.817,2.272,2.817h9.086c1.272,0,2.272-.818,2.272-2.817a6.906,6.906,0,0,0-6.771-6.906Z"/>
    <path id="Path_45" data-name="Path 45" class="cls-7" d="M82.776,249.872H73.69a2.181,2.181,0,0,1-1.408-.545,3.544,3.544,0,0,0,0,.727l.909,6.769a2.317,2.317,0,0,0,2.272,1.954h5.861a2.226,2.226,0,0,0,2.226-1.954l.727-6.951a3.543,3.543,0,0,0,0-.727,2.181,2.181,0,0,1-1.5.727Z"/>
    <path id="Path_46" data-name="Path 46" class="cls-3" d="M78.142,240.059a6.906,6.906,0,0,0-6.86,6.906c0,2,1,2.817,2.272,2.817h9.086c1.272,0,2.272-.818,2.272-2.817a6.906,6.906,0,0,0-6.771-6.906Z"/>
    <line id="Line_36" data-name="Line 36" class="cls-2" y2="52.201" transform="translate(65.739 266.772)"/>
    <ellipse id="Ellipse_3" data-name="Ellipse 3" class="cls-1" cx="61.332" cy="6.815" rx="61.332" ry="6.815" transform="translate(88.455 378.533)"/>
    <path id="Path_47" data-name="Path 47" class="cls-7" d="M173.547,311.84v15.992H97.586a4.543,4.543,0,0,0-4.543,4.543V369.72a4.543,4.543,0,0,0,3.862,4.543l10.858,1.681h91.771a4.543,4.543,0,0,0,4.543-4.543V336.191a68.146,68.146,0,0,0-.681-9.631l-1.636-11.312a9.086,9.086,0,0,0-9.086-7.814H178.091A4.543,4.543,0,0,0,173.547,311.84Z"/>
    <path id="Path_48" data-name="Path 48" class="cls-3" d="M126.435,375.9a8.314,8.314,0,1,1-8.314-8.314,8.314,8.314,0,0,1,8.314,8.314Z"/>
    <path id="Path_49" data-name="Path 49" class="cls-3" d="M185.95,375.9a8.314,8.314,0,1,1-8.314-8.314A8.314,8.314,0,0,1,185.95,375.9Z"/>
    <rect id="Rectangle_15" data-name="Rectangle 15" class="cls-3" width="15.901" height="30.121" transform="translate(137.475 345.777)"/>
    <rect id="Rectangle_16" data-name="Rectangle 16" class="cls-6" width="25.078" height="13.811" transform="translate(103.22 345.777)"/>
    <rect id="Rectangle_17" data-name="Rectangle 17" class="cls-2" width="25.078" height="13.811" transform="translate(103.22 345.777)"/>
    <rect id="Rectangle_18" data-name="Rectangle 18" class="cls-6" width="15.901" height="13.811" transform="translate(162.371 345.777)"/>
    <rect id="Rectangle_19" data-name="Rectangle 19" class="cls-2" width="15.901" height="13.811" transform="translate(162.371 345.777)"/>
    <rect id="Rectangle_20" data-name="Rectangle 20" class="cls-6" width="15.901" height="13.811" transform="translate(188.176 345.777)"/>
    <rect id="Rectangle_21" data-name="Rectangle 21" class="cls-2" width="15.901" height="13.811" transform="translate(188.176 345.777)"/>
    <path id="Path_50" data-name="Path 50" class="cls-6" d="M187.9,328.15h15.674l-1.59-11.267H187.9a4.543,4.543,0,0,0-4.543,4.543V323.7a4.543,4.543,0,0,0,4.543,4.452Z"/>
    <path id="Path_51" data-name="Path 51" class="cls-2" d="M187.9,328.15h15.674l-1.59-11.267H187.9a4.543,4.543,0,0,0-4.543,4.543V323.7a4.543,4.543,0,0,0,4.543,4.452Z"/>
    <path id="Path_52" data-name="Path 52" class="cls-2" d="M103.765,318.973h69.782v8.859H99.222v-4.316A4.543,4.543,0,0,1,103.765,318.973Z"/>
    <rect id="Rectangle_22" data-name="Rectangle 22" class="cls-2" width="10.585" height="8.859" transform="translate(111.897 318.973)"/>
    <rect id="Rectangle_23" data-name="Rectangle 23" class="cls-2" width="10.585" height="8.859" transform="translate(132.523 318.973)"/>
    <rect id="Rectangle_24" data-name="Rectangle 24" class="cls-2" width="10.585" height="8.859" transform="translate(153.376 318.973)"/>
    <rect id="Rectangle_25" data-name="Rectangle 25" class="cls-3" width="15.901" height="13.811" transform="translate(137.475 345.777)"/>
    <line id="Line_37" data-name="Line 37" class="cls-2" x2="90.635" transform="translate(104.083 336.827)"/>
  </g>
</svg>
